<?xml version="1.0" encoding="iso-8859-1"?>
<!-- Generator: Adobe Illustrator 19.0.0, SVG Export Plug-In . SVG Version: 6.00 Build 0)  -->
<svg version="1.1" id="Layer_1" xmlns="http://www.w3.org/2000/svg" xmlns:xlink="http://www.w3.org/1999/xlink" x="0px" y="0px"
	 viewBox="0 0 512 512" style="enable-background:new 0 0 512 512;" xml:space="preserve">
<circle style="fill:#273B7A;" cx="256" cy="256" r="256"/>
<path style="fill:#121149;" d="M511.89,248.706L326.968,63.785C299.91,67.322,269.453,73.9,256,99.125
	C228.417,149.118,221.522,202.559,202.559,256c-8.62,22.411-13.791,51.717-31.03,72.404c-13.788,17.234-5.182,46.525-29.306,58.585
	l124.749,124.749C403.272,505.994,512,393.704,512,256C512,253.561,511.959,251.13,511.89,248.706z"/>
<path style="fill:#D0E557;" d="M142.222,386.989V217.902c0-62.838,50.94-113.778,113.778-113.778s113.778,50.94,113.778,113.778
	v169.088C369.778,386.989,259.687,476.01,142.222,386.989z"/>
<path style="fill:#B8C443;" d="M369.778,217.902c0-62.838-50.94-113.778-113.778-113.778v322.405
	c66.089-0.986,113.778-39.54,113.778-39.54V217.902z"/>
<g>
	<circle style="fill:#222323;" cx="200.697" cy="235.279" r="9.481"/>
	<circle style="fill:#222323;" cx="311.303" cy="235.279" r="9.481"/>
</g>
<path style="fill:#D35F09;" d="M226.263,244.8c0-17.953,13.314-27.12,29.737-27.12s29.737,9.168,29.737,27.12
	S256,312.997,256,312.997S226.263,262.753,226.263,244.8z"/>
<path style="fill:#BA520C;" d="M256,217.679v95.316c0.012-0.019,29.737-50.247,29.737-68.196
	C285.737,226.847,272.424,217.679,256,217.679z"/>
<path style="fill:#D48B07;" d="M252.552,114.467c0,0,1.15-65.336,74.416-50.683c0,0-62.348,23.273-64.646,78.438L252.552,114.467z"
	/>
<path style="fill:#D35F09;" d="M232.441,114.467c0,0-8.62-47.509,48.843-65.336c0,0-16.665,37.926-18.963,93.091L232.441,114.467z"
	/>
<path style="fill:#7CBC44;" d="M257.077,404.687L142.222,289.832v97.158c117.465,89.021,227.556,0,227.556,0v-95.003
	L257.077,404.687z"/>
<path style="fill:#6BA334;" d="M369.778,291.987l-112.7,112.7L256,403.609v22.918c66.089-0.986,113.778-39.54,113.778-39.54V291.987
	z"/>
<g>
</g>
<g>
</g>
<g>
</g>
<g>
</g>
<g>
</g>
<g>
</g>
<g>
</g>
<g>
</g>
<g>
</g>
<g>
</g>
<g>
</g>
<g>
</g>
<g>
</g>
<g>
</g>
<g>
</g>
</svg>
